<svg xmlns="http://www.w3.org/2000/svg" width="341" height="74.363" viewBox="0 0 341 74.363"><defs><style>.a{fill:#92278f;}.b{fill:#f7941d;}</style></defs><g transform="translate(-28.15 -31.53)"><path class="a" d="M46.87,71.313a7.108,7.108,0,0,0,4.9-1.643,5.764,5.764,0,0,0,1.96-4.39H63.965A13.815,13.815,0,0,1,61.7,72.853a15.051,15.051,0,0,1-6.111,5.34,19.293,19.293,0,0,1-8.561,1.9c-5.853,0-10.443-1.849-13.821-5.546S28.15,65.741,28.15,59.22V58.5q0-9.4,5.028-14.994c3.352-3.748,7.942-5.6,13.795-5.6q7.658,0,12.3,4.339C62.367,45.15,63.914,49,63.965,53.8H53.729a7.476,7.476,0,0,0-1.96-5.161,6.5,6.5,0,0,0-4.976-1.977,6.543,6.543,0,0,0-5.75,2.773c-1.289,1.849-1.934,4.853-1.934,8.986v1.13c0,4.185.645,7.215,1.934,9.037A6.645,6.645,0,0,0,46.87,71.313Z" transform="translate(0 10.071)"/><path class="a" d="M62.235,63.63l7.555-25.424H81.5L65.071,85.418l-.9,2.14q-3.674,8.006-12.093,8.019a16.87,16.87,0,0,1-4.848-.722V86.578l1.65.026a8.743,8.743,0,0,0,4.616-.954,6.028,6.028,0,0,0,2.4-3.146l1.289-3.352L42.87,38.18H54.628Z" transform="translate(23.235 10.316)"/><path class="a" d="M96.367,69.511q0,9.824-4.2,15.316c-2.785,3.661-6.7,5.492-11.706,5.492a12.783,12.783,0,0,1-10.623-5.105l-.49,4.332H59.52V31.53H70.427V52.338a12.449,12.449,0,0,1,9.927-4.409,14.03,14.03,0,0,1,11.732,5.492q4.255,5.492,4.255,15.471v.619Zm-10.933-.8c0-4.126-.645-7.142-1.96-9.05A6.655,6.655,0,0,0,77.621,56.8c-3.481,0-5.879,1.418-7.168,4.28V77.2C71.794,80.057,74.217,81.5,77.7,81.5c3.533,0,5.853-1.728,6.962-5.209A27.369,27.369,0,0,0,85.434,68.712Z" transform="translate(49.297)"/><path class="a" d="M96.133,80.1c-5.982,0-10.881-1.823-14.646-5.494S75.84,66.055,75.84,59.97V58.918a24.65,24.65,0,0,1,2.372-10.963,17.577,17.577,0,0,1,6.756-7.446,19.007,19.007,0,0,1,9.953-2.619q8.393,0,13.2,5.263,4.835,5.276,4.822,14.943v4.442H86.9a10.046,10.046,0,0,0,3.2,6.393,9.754,9.754,0,0,0,6.756,2.413A11.769,11.769,0,0,0,106.7,66.8l5.363,5.982a16.271,16.271,0,0,1-6.653,5.392A21.91,21.91,0,0,1,96.133,80.1ZM94.9,46.671a6.79,6.79,0,0,0-5.26,2.182,11.225,11.225,0,0,0-2.578,6.265h15.187v-.873a8.119,8.119,0,0,0-1.96-5.623A7.329,7.329,0,0,0,94.9,46.671Z" transform="translate(74.943 10.039)"/><path class="a" d="M115.589,48.837a29.077,29.077,0,0,0-3.919-.308c-4.126,0-6.833,1.386-8.122,4.185V79.336H92.64V38.645h10.314l.309,4.852c2.192-3.748,5.234-5.6,9.1-5.6a11.246,11.246,0,0,1,3.4.488Z" transform="translate(101.364 10.055)"/><path class="b" d="M140.417,69.511q0,9.824-4.2,15.316c-2.785,3.661-6.7,5.492-11.706,5.492a12.783,12.783,0,0,1-10.623-5.105l-.49,4.332H103.57V31.53h10.907V52.338a12.449,12.449,0,0,1,9.927-4.409,14.03,14.03,0,0,1,11.732,5.492q4.255,5.492,4.255,15.471v.619Zm-10.933-.8c0-4.126-.645-7.142-1.96-9.05a6.625,6.625,0,0,0-5.853-2.862c-3.481,0-5.879,1.418-7.168,4.28V77.2c1.341,2.862,3.765,4.306,7.246,4.306,3.533,0,5.853-1.728,6.962-5.209A27.369,27.369,0,0,0,129.484,68.712Z" transform="translate(118.52)"/><path class="b" d="M140.183,80.1q-9.012,0-14.646-5.494T119.89,59.97V58.918a24.65,24.65,0,0,1,2.372-10.963,17.577,17.577,0,0,1,6.756-7.446,18.942,18.942,0,0,1,9.953-2.619c5.6,0,9.979,1.746,13.2,5.263s4.822,8.5,4.822,14.943v4.442H130.978a10.046,10.046,0,0,0,3.2,6.393,9.754,9.754,0,0,0,6.756,2.413,11.769,11.769,0,0,0,9.85-4.544l5.363,5.982a16.27,16.27,0,0,1-6.653,5.392A22.113,22.113,0,0,1,140.183,80.1Zm-1.238-33.429a6.79,6.79,0,0,0-5.26,2.182,11.225,11.225,0,0,0-2.579,6.265h15.187v-.873a8.12,8.12,0,0,0-1.96-5.623A7.288,7.288,0,0,0,138.945,46.671Z" transform="translate(144.166 10.039)"/><path class="b" d="M161.355,79.371a11.092,11.092,0,0,1-1.083-3.646,13.273,13.273,0,0,1-10.314,4.39,14.544,14.544,0,0,1-9.953-3.466,11.114,11.114,0,0,1-3.945-8.729,11.474,11.474,0,0,1,4.822-9.936c3.223-2.311,7.839-3.466,13.924-3.492h5.028V52.155a6.792,6.792,0,0,0-1.444-4.519,5.748,5.748,0,0,0-4.59-1.695,6.6,6.6,0,0,0-4.332,1.309,4.43,4.43,0,0,0-1.573,3.62H136.988a10.818,10.818,0,0,1,2.192-6.547,14.74,14.74,0,0,1,6.188-4.724,22.941,22.941,0,0,1,9-1.72q7.542,0,11.99,3.774c2.965,2.516,4.435,6.059,4.435,10.629V69.922c.026,3.851.567,6.778,1.624,8.755v.642H161.355ZM152.33,71.8a9.46,9.46,0,0,0,4.461-1.078,6.954,6.954,0,0,0,3.017-2.876V60.859h-4.074c-5.466,0-8.38,1.874-8.715,5.648l-.026.642a4.323,4.323,0,0,0,1.444,3.338A5.405,5.405,0,0,0,152.33,71.8Z" transform="translate(169.505 10.023)"/><path class="b" d="M168.148,34.29V44.346h6.988v8.019h-6.988v20.4a4.758,4.758,0,0,0,.877,3.249c.567.645,1.676.98,3.326.98a17.367,17.367,0,0,0,3.223-.258v8.277a22.732,22.732,0,0,1-6.6.98q-11.487,0-11.706-11.6V52.365H151.31V44.346h5.956V34.29Z" transform="translate(193.577 4.357)"/></g></svg>